<svg width="571" height="115" viewBox="0 0 571 115" fill="none" xmlns="http://www.w3.org/2000/svg">
<path d="M88.0469 0H26.9531C12.0673 0 0 12.0673 0 26.9531V88.0469C0 102.933 12.0673 115 26.9531 115H88.0469C102.933 115 115 102.933 115 88.0469V26.9531C115 12.0673 102.933 0 88.0469 0Z" fill="url(#paint0_linear_2647_43)"/>
<path d="M88.0469 0H26.9531C12.0673 0 0 12.0673 0 26.9531V88.0469C0 102.933 12.0673 115 26.9531 115H88.0469C102.933 115 115 102.933 115 88.0469V26.9531C115 12.0673 102.933 0 88.0469 0Z" fill="url(#paint1_radial_2647_43)"/>
<path d="M88.4961 33.6919H26.5039C22.7825 33.6919 19.7656 36.7087 19.7656 40.4302V79.063C19.7656 82.7844 22.7825 85.8013 26.5039 85.8013H88.4961C92.2175 85.8013 95.2344 82.7844 95.2344 79.063V40.4302C95.2344 36.7087 92.2175 33.6919 88.4961 33.6919Z" fill="white"/>
<path d="M23.3594 38.6328L57.5 64.6875L91.6406 38.6328" stroke="#CDD1E0" stroke-width="5.202" stroke-linecap="round" stroke-linejoin="round"/>
<path d="M46.2695 60.1958L38.6328 68.731L46.2695 77.2661" stroke="#EC4899" stroke-width="6.936" stroke-linecap="round" stroke-linejoin="round"/>
<path d="M68.7305 60.1958L76.3672 68.731L68.7305 77.2661" stroke="#EC4899" stroke-width="6.936" stroke-linecap="round" stroke-linejoin="round"/>
<path d="M60.6445 58.8477L54.3555 78.6133" stroke="#8B5CF6" stroke-width="6.936" stroke-linecap="round"/>
<path d="M88.0469 95.6836C96.2341 95.6836 102.871 89.0466 102.871 80.8594C102.871 72.6722 96.2341 66.0352 88.0469 66.0352C79.8597 66.0352 73.2227 72.6722 73.2227 80.8594C73.2227 89.0466 79.8597 95.6836 88.0469 95.6836Z" fill="url(#paint2_linear_2647_43)" stroke="white" stroke-width="4.046"/>
<path d="M81.7578 80.8594L86.4746 85.5762L94.7852 76.3672" stroke="white" stroke-width="5.491" stroke-linecap="round" stroke-linejoin="round"/>
<path d="M151.6 93V23H196.6V35H164.8V51.7H193.8V63.7H164.8V81H197.2V93H151.6ZM206.971 93V23H231.471L243.571 84H245.371L257.471 23H281.971V93H269.171V32.7H267.371L255.371 93H233.571L221.571 32.7H219.771V93H206.971ZM295.155 93V23H308.355V81H340.355V93H295.155ZM349.754 93V43.4H362.354V93H349.754ZM356.054 37.6C353.787 37.6 351.854 36.8667 350.254 35.4C348.721 33.9333 347.954 32 347.954 29.6C347.954 27.2 348.721 25.2667 350.254 23.8C351.854 22.3333 353.787 21.6 356.054 21.6C358.387 21.6 360.321 22.3333 361.854 23.8C363.387 25.2667 364.154 27.2 364.154 29.6C364.154 32 363.387 33.9333 361.854 35.4C360.321 36.8667 358.387 37.6 356.054 37.6ZM376.316 93V43.4H388.716V49.9H390.516C391.316 48.1667 392.816 46.5333 395.016 45C397.216 43.4 400.55 42.6 405.016 42.6C408.883 42.6 412.25 43.5 415.116 45.3C418.05 47.0333 420.316 49.4667 421.916 52.6C423.516 55.6667 424.316 59.2667 424.316 63.4V93H411.716V64.4C411.716 60.6667 410.783 57.8667 408.916 56C407.116 54.1333 404.516 53.2 401.116 53.2C397.25 53.2 394.25 54.5 392.116 57.1C389.983 59.6333 388.916 63.2 388.916 67.8V93H376.316ZM455.57 93C452.304 93 449.637 92 447.57 90C445.57 87.9333 444.57 85.2 444.57 81.8V53.8H432.17V43.4H444.57V28H457.17V43.4H470.77V53.8H457.17V79.6C457.17 81.6 458.104 82.6 459.97 82.6H469.57V93H455.57ZM503.018 94.4C498.085 94.4 493.718 93.3667 489.918 91.3C486.185 89.1667 483.251 86.2 481.118 82.4C479.051 78.5333 478.018 74 478.018 68.8V67.6C478.018 62.4 479.051 57.9 481.118 54.1C483.185 50.2333 486.085 47.2667 489.818 45.2C493.551 43.0667 497.885 42 502.818 42C507.685 42 511.918 43.1 515.518 45.3C519.118 47.4333 521.918 50.4333 523.918 54.3C525.918 58.1 526.918 62.5333 526.918 67.6V71.9H490.818C490.951 75.3 492.218 78.0667 494.618 80.2C497.018 82.3333 499.951 83.4 503.418 83.4C506.951 83.4 509.551 82.6333 511.218 81.1C512.885 79.5667 514.151 77.8667 515.018 76L525.318 81.4C524.385 83.1333 523.018 85.0333 521.218 87.1C519.485 89.1 517.151 90.8333 514.218 92.3C511.285 93.7 507.551 94.4 503.018 94.4ZM490.918 62.5H514.118C513.851 59.6333 512.685 57.3333 510.618 55.6C508.618 53.8667 505.985 53 502.718 53C499.318 53 496.618 53.8667 494.618 55.6C492.618 57.3333 491.385 59.6333 490.918 62.5ZM538.133 93V43.4H550.533V49H552.333C553.066 47 554.266 45.5333 555.933 44.6C557.666 43.6667 559.666 43.2 561.933 43.2H567.933V54.4H561.733C558.533 54.4 555.899 55.2667 553.833 57C551.766 58.6667 550.733 61.2667 550.733 64.8V93H538.133Z" fill="url(#paint3_linear_2647_43)"/>
<defs>
<linearGradient id="paint0_linear_2647_43" x1="0" y1="0" x2="115" y2="115" gradientUnits="userSpaceOnUse">
<stop stop-color="#F472B6"/>
<stop offset="0.45" stop-color="#EC4899"/>
<stop offset="1" stop-color="#8B5CF6"/>
</linearGradient>
<radialGradient id="paint1_radial_2647_43" cx="0" cy="0" r="1" gradientUnits="userSpaceOnUse" gradientTransform="translate(34.5 17.25) scale(103.5)">
<stop stop-color="white" stop-opacity="0.28"/>
<stop offset="0.55" stop-color="white" stop-opacity="0"/>
</radialGradient>
<linearGradient id="paint2_linear_2647_43" x1="73.2227" y1="66.0352" x2="102.871" y2="95.6836" gradientUnits="userSpaceOnUse">
<stop stop-color="#7DD3FC"/>
<stop offset="1" stop-color="#38BDF8"/>
</linearGradient>
<linearGradient id="paint3_linear_2647_43" x1="145" y1="58" x2="571" y2="58" gradientUnits="userSpaceOnUse">
<stop stop-color="#8B5CF6"/>
<stop offset="0.532543" stop-color="#EC4899"/>
<stop offset="1" stop-color="#EB4A9B"/>
</linearGradient>
</defs>
</svg>
